<?xml version="1.0" encoding="UTF-8" standalone="no"?>
<svg
   xmlns:dc="http://purl.org/dc/elements/1.1/"
   xmlns:cc="http://creativecommons.org/ns#"
   xmlns:rdf="http://www.w3.org/1999/02/22-rdf-syntax-ns#"
   xmlns:svg="http://www.w3.org/2000/svg"
   xmlns="http://www.w3.org/2000/svg"
   xmlns:sodipodi="http://sodipodi.sourceforge.net/DTD/sodipodi-0.dtd"
   xmlns:inkscape="http://www.inkscape.org/namespaces/inkscape"
   version="1.1"
   id="svg2"
   width="32"
   height="32"
   viewBox="0 0 32 32"
   sodipodi:docname="signature.svg"
   inkscape:version="1.0.1 (0767f8302a, 2020-10-17)">
  <metadata
     id="metadata8">
    <rdf:RDF>
      <cc:Work
         rdf:about="">
        <dc:format>image/svg+xml</dc:format>
        <dc:type
           rdf:resource="http://purl.org/dc/dcmitype/StillImage" />
        <dc:title />
      </cc:Work>
    </rdf:RDF>
  </metadata>
  <defs
     id="defs6" />
  <sodipodi:namedview
     pagecolor="#ffffff"
     bordercolor="#666666"
     borderopacity="1"
     objecttolerance="10"
     gridtolerance="10"
     guidetolerance="10"
     inkscape:pageopacity="0"
     inkscape:pageshadow="2"
     inkscape:window-width="1848"
     inkscape:window-height="1016"
     id="namedview4"
     showgrid="false"
     inkscape:zoom="16.241359"
     inkscape:cx="22.724894"
     inkscape:cy="16.557286"
     inkscape:window-x="72"
     inkscape:window-y="27"
     inkscape:window-maximized="1"
     inkscape:current-layer="g10"
     inkscape:document-rotation="0" />
  <g
     inkscape:groupmode="layer"
     inkscape:label="Image"
     id="g10">
    <path
       style="fill:#000000;fill-opacity:1;stroke-width:0.396024"
       d="M 8.4974371,27.543557 C 6.7559222,26.786992 2.8476486,23.688879 1.733192,22.181496 0.38889933,20.363243 0.49792906,18.715826 2.0482143,17.421592 c 1.203625,-1.004831 5.7991368,-2.744188 7.2503491,-2.744188 0.5066149,0 0.6882463,-0.437548 0.7808746,-1.881113 0.148962,-2.321484 0.779548,-2.433058 1.310767,-0.231923 l 0.398014,1.649191 4.354273,-1.123717 c 6.781559,-1.75013 6.218304,-1.319976 8.78067,-6.7057392 1.243935,-2.6145881 2.310904,-4.704591 2.371045,-4.6444508 0.06013,0.06014 -0.38943,2.0155781 -0.999043,4.3454174 -0.609615,2.3298395 -1.005271,4.2330176 -0.879238,4.2292846 0.126032,-0.0037 1.558939,-0.3520962 3.184235,-0.7741414 1.625295,-0.4220465 3.012381,-0.710058 3.082411,-0.640028 0.07004,0.070034 -1.574902,0.9893075 -3.655405,2.0428374 -3.963091,2.006839 -4.512675,2.533148 -5.346923,5.120466 -0.795197,2.466207 -3.130217,6.9231 -4.173889,7.966771 -1.738199,1.738199 -3.705208,0.954799 -3.779709,-1.505347 -0.01729,-0.570816 -0.29716,-0.126322 -0.741238,1.177231 -0.392407,1.151876 -0.780883,2.140983 -0.863282,2.198014 -0.0824,0.05703 -0.742673,0.584828 -1.467278,1.172879 -1.51606,1.230353 -1.435877,1.218404 -3.1574109,0.470521 z m 2.0426189,-3.91269 c 0.278184,-2.366904 -0.08687,-6.973343 -0.5526263,-6.973343 -0.1638413,0 -1.4304818,0.351163 -2.8147573,0.780363 -2.5975995,0.805395 -4.2989726,1.758845 -4.2989726,2.409143 0,1.110508 5.6410229,5.919045 6.9437898,5.919045 0.2754594,0 0.5759924,-0.888083 0.7225664,-2.135208 z m 2.770485,-4.268608 c 0.356934,-1.779595 0.59728,-3.287317 0.5341,-3.350497 -0.06318,-0.06318 -0.496077,-0.01519 -0.961994,0.106655 -0.783495,0.204888 -0.841687,0.456504 -0.774753,3.349943 0.0398,1.720629 0.180663,3.128664 0.313022,3.128968 0.13236,3.04e-4 0.532691,-1.455479 0.889625,-3.235072 z m 5.324087,-1.318651 c 1.066936,-2.069225 1.860714,-3.762228 1.763951,-3.762228 -0.09677,0 -1.159277,0.285865 -2.36114,0.635256 l -2.185204,0.635256 0.238781,1.44387 c 0.131329,0.794128 0.240742,2.201266 0.243139,3.126972 0.0025,0.925706 0.08451,1.683101 0.182473,1.683101 0.09797,0 1.051063,-1.693002 2.118,-3.762227 z"
       id="path14" />
  </g>
</svg>
